<mxfile host="65bd71144e">
    <diagram id="gtTxKSChkaDydjqkvfyG" name="Страница 1">
        <mxGraphModel dx="1217" dy="960" grid="1" gridSize="7" guides="1" tooltips="1" connect="1" arrows="1" fold="1" page="1" pageScale="1" pageWidth="2336" pageHeight="1654" math="0" shadow="0">
            <root>
                <mxCell id="0"/>
                <mxCell id="1" parent="0"/>
                <mxCell id="4" value="" style="shape=link;html=1;fillColor=#60a917;strokeColor=#2D7600;" edge="1" parent="1">
                    <mxGeometry width="100" relative="1" as="geometry">
                        <mxPoint x="139.5" y="7" as="sourcePoint"/>
                        <mxPoint x="139.5" y="736.5999755859375" as="targetPoint"/>
                    </mxGeometry>
                </mxCell>
                <mxCell id="5" value="" style="endArrow=none;html=1;" edge="1" parent="1">
                    <mxGeometry width="50" height="50" relative="1" as="geometry">
                        <mxPoint x="7" y="336" as="sourcePoint"/>
                        <mxPoint x="1960" y="336" as="targetPoint"/>
                    </mxGeometry>
                </mxCell>
                <mxCell id="6" value="" style="endArrow=none;html=1;" edge="1" parent="1">
                    <mxGeometry width="50" height="50" relative="1" as="geometry">
                        <mxPoint x="14" y="539" as="sourcePoint"/>
                        <mxPoint x="1960" y="532" as="targetPoint"/>
                    </mxGeometry>
                </mxCell>
                <mxCell id="7" value="" style="endArrow=none;html=1;" edge="1" parent="1">
                    <mxGeometry width="50" height="50" relative="1" as="geometry">
                        <mxPoint y="728" as="sourcePoint"/>
                        <mxPoint x="1967" y="728" as="targetPoint"/>
                    </mxGeometry>
                </mxCell>
                <mxCell id="8" value="" style="endArrow=none;html=1;" edge="1" parent="1">
                    <mxGeometry width="50" height="50" relative="1" as="geometry">
                        <mxPoint x="14" y="168" as="sourcePoint"/>
                        <mxPoint x="1960" y="168" as="targetPoint"/>
                    </mxGeometry>
                </mxCell>
                <mxCell id="11" value="&lt;font style=&quot;font-size: 17px;&quot;&gt;менеджер&amp;nbsp;&lt;/font&gt;" style="rounded=0;whiteSpace=wrap;html=1;strokeColor=#18F02E;direction=north;flipV=0;flipH=1;container=0;labelBackgroundColor=default;labelBorderColor=default;" vertex="1" parent="1">
                    <mxGeometry x="21" y="28" width="112" height="119" as="geometry"/>
                </mxCell>
                <mxCell id="12" value="&lt;font style=&quot;font-size: 17px;&quot;&gt;Юридический отдел&lt;/font&gt;" style="rounded=0;whiteSpace=wrap;html=1;strokeColor=#18F02E;direction=north;flipV=0;flipH=1;container=0;labelBackgroundColor=default;labelBorderColor=default;" vertex="1" parent="1">
                    <mxGeometry x="21" y="196" width="112" height="119" as="geometry"/>
                </mxCell>
                <mxCell id="13" value="&lt;font style=&quot;font-size: 17px;&quot;&gt;Финансовый отдел&lt;/font&gt;" style="rounded=0;whiteSpace=wrap;html=1;strokeColor=#18F02E;direction=north;flipV=0;flipH=1;container=0;labelBackgroundColor=default;labelBorderColor=default;" vertex="1" parent="1">
                    <mxGeometry x="21" y="385" width="112" height="119" as="geometry"/>
                </mxCell>
                <mxCell id="14" value="&lt;font style=&quot;font-size: 17px;&quot;&gt;контрагент&lt;/font&gt;" style="rounded=0;whiteSpace=wrap;html=1;strokeColor=#18F02E;direction=north;flipV=0;flipH=1;container=0;labelBackgroundColor=default;labelBorderColor=default;" vertex="1" parent="1">
                    <mxGeometry x="21" y="567" width="112" height="119" as="geometry"/>
                </mxCell>
                <mxCell id="17" style="edgeStyle=none;html=1;fillColor=#e3c800;strokeColor=#B09500;" edge="1" parent="1" source="15" target="18">
                    <mxGeometry relative="1" as="geometry">
                        <mxPoint x="399" y="77" as="targetPoint"/>
                    </mxGeometry>
                </mxCell>
                <mxCell id="15" value="&lt;font color=&quot;#cf0707&quot; style=&quot;font-size: 15px;&quot;&gt;поступление заявки&lt;/font&gt;" style="ellipse;whiteSpace=wrap;html=1;labelBackgroundColor=default;labelBorderColor=none;strokeColor=#B09500;fillColor=#e3c800;fontColor=#e7dada;fillStyle=hatch;" vertex="1" parent="1">
                    <mxGeometry x="182" y="42" width="126" height="70" as="geometry"/>
                </mxCell>
                <mxCell id="20" style="edgeStyle=none;html=1;entryX=0.5;entryY=0;entryDx=0;entryDy=0;exitX=0.25;exitY=1;exitDx=0;exitDy=0;fillColor=#e3c800;strokeColor=#B09500;" edge="1" parent="1" source="18" target="21">
                    <mxGeometry relative="1" as="geometry">
                        <mxPoint x="487" y="189" as="targetPoint"/>
                        <Array as="points">
                            <mxPoint x="457" y="133"/>
                            <mxPoint x="367" y="133"/>
                        </Array>
                    </mxGeometry>
                </mxCell>
                <mxCell id="51" style="edgeStyle=none;html=1;entryX=0.436;entryY=-0.017;entryDx=0;entryDy=0;entryPerimeter=0;exitX=0.577;exitY=1.038;exitDx=0;exitDy=0;exitPerimeter=0;fillColor=#e3c800;strokeColor=#B09500;" edge="1" parent="1" source="18" target="40">
                    <mxGeometry relative="1" as="geometry"/>
                </mxCell>
                <mxCell id="18" value="&lt;font style=&quot;font-size: 15px;&quot;&gt;фиксирование запроса в CRM&amp;nbsp;&lt;/font&gt;" style="rounded=1;whiteSpace=wrap;html=1;labelBackgroundColor=default;labelBorderColor=none;strokeColor=#f0d419;" vertex="1" parent="1">
                    <mxGeometry x="427" y="47" width="120" height="65" as="geometry"/>
                </mxCell>
                <mxCell id="30" style="edgeStyle=none;html=1;entryX=0;entryY=0;entryDx=0;entryDy=0;fillColor=#e3c800;strokeColor=#B09500;" edge="1" parent="1" target="29">
                    <mxGeometry relative="1" as="geometry">
                        <mxPoint x="371" y="574" as="sourcePoint"/>
                        <Array as="points">
                            <mxPoint x="371" y="651"/>
                        </Array>
                    </mxGeometry>
                </mxCell>
                <mxCell id="21" value="&lt;font style=&quot;font-size: 17px;&quot;&gt;Договор в&amp;nbsp; нашей редакции&lt;/font&gt;" style="rounded=1;whiteSpace=wrap;html=1;labelBackgroundColor=default;labelBorderColor=none;strokeColor=#18F02E;" vertex="1" parent="1">
                    <mxGeometry x="273" y="266" width="189" height="49" as="geometry"/>
                </mxCell>
                <mxCell id="22" value="" style="endArrow=classic;html=1;exitX=0.5;exitY=1;exitDx=0;exitDy=0;entryX=0;entryY=0.5;entryDx=0;entryDy=0;fillColor=#e3c800;strokeColor=#B09500;" edge="1" parent="1" source="21" target="23">
                    <mxGeometry width="50" height="50" relative="1" as="geometry">
                        <mxPoint x="504" y="336" as="sourcePoint"/>
                        <mxPoint x="546" y="539" as="targetPoint"/>
                        <Array as="points">
                            <mxPoint x="371" y="576"/>
                        </Array>
                    </mxGeometry>
                </mxCell>
                <mxCell id="24" style="edgeStyle=none;html=1;exitX=1;exitY=0.5;exitDx=0;exitDy=0;fillColor=#e3c800;strokeColor=#B09500;" edge="1" parent="1" source="23">
                    <mxGeometry relative="1" as="geometry">
                        <mxPoint x="945" y="399" as="targetPoint"/>
                        <Array as="points">
                            <mxPoint x="728" y="578"/>
                            <mxPoint x="728" y="399"/>
                        </Array>
                    </mxGeometry>
                </mxCell>
                <mxCell id="23" value="&lt;font style=&quot;font-size: 16px;&quot;&gt;клиент принял&amp;nbsp;&lt;/font&gt;" style="shape=parallelogram;perimeter=parallelogramPerimeter;whiteSpace=wrap;html=1;fixedSize=1;labelBackgroundColor=default;labelBorderColor=none;strokeColor=#18F02E;" vertex="1" parent="1">
                    <mxGeometry x="462" y="546" width="161" height="63" as="geometry"/>
                </mxCell>
                <mxCell id="33" style="edgeStyle=none;html=1;entryX=0;entryY=0.5;entryDx=0;entryDy=0;fillColor=#e3c800;strokeColor=#B09500;" edge="1" parent="1" target="34">
                    <mxGeometry relative="1" as="geometry">
                        <mxPoint x="973" y="252" as="targetPoint"/>
                        <mxPoint x="1267" y="308" as="sourcePoint"/>
                    </mxGeometry>
                </mxCell>
                <mxCell id="25" value="&lt;font style=&quot;font-size: 17px;&quot;&gt;Проверка контрагента&lt;/font&gt;" style="rounded=1;whiteSpace=wrap;html=1;labelBackgroundColor=default;labelBorderColor=none;strokeColor=#18F02E;direction=west;" vertex="1" parent="1">
                    <mxGeometry x="1066" y="290.5" width="203" height="35" as="geometry"/>
                </mxCell>
                <mxCell id="36" style="edgeStyle=none;html=1;exitX=1;exitY=0.5;exitDx=0;exitDy=0;fillColor=#e3c800;strokeColor=#B09500;" edge="1" parent="1" source="26">
                    <mxGeometry relative="1" as="geometry">
                        <mxPoint x="1092" y="487" as="sourcePoint"/>
                        <mxPoint x="1344" y="475" as="targetPoint"/>
                    </mxGeometry>
                </mxCell>
                <mxCell id="26" value="&lt;font style=&quot;font-size: 17px;&quot;&gt;Проверка контрагента&lt;/font&gt;" style="rounded=1;whiteSpace=wrap;html=1;labelBackgroundColor=default;labelBorderColor=none;strokeColor=#18F02E;" vertex="1" parent="1">
                    <mxGeometry x="1078" y="457.5" width="203" height="35" as="geometry"/>
                </mxCell>
                <mxCell id="31" style="edgeStyle=none;html=1;entryX=0;entryY=0.5;entryDx=0;entryDy=0;fillColor=#e3c800;strokeColor=#B09500;" edge="1" parent="1" source="29" target="32">
                    <mxGeometry relative="1" as="geometry">
                        <mxPoint x="825" y="660" as="targetPoint"/>
                        <Array as="points">
                            <mxPoint x="728" y="679"/>
                            <mxPoint x="728" y="653"/>
                        </Array>
                    </mxGeometry>
                </mxCell>
                <mxCell id="29" value="&lt;font style=&quot;font-size: 16px;&quot;&gt;клиент непринял&amp;nbsp;&lt;/font&gt;" style="shape=parallelogram;perimeter=parallelogramPerimeter;whiteSpace=wrap;html=1;fixedSize=1;labelBackgroundColor=default;labelBorderColor=none;strokeColor=#18F02E;" vertex="1" parent="1">
                    <mxGeometry x="448" y="644" width="168" height="70" as="geometry"/>
                </mxCell>
                <mxCell id="37" style="edgeStyle=none;html=1;entryX=0.5;entryY=0;entryDx=0;entryDy=0;exitX=0.5;exitY=0;exitDx=0;exitDy=0;fillColor=#e3c800;strokeColor=#B09500;" edge="1" parent="1" source="32" target="25">
                    <mxGeometry relative="1" as="geometry">
                        <Array as="points">
                            <mxPoint x="943" y="399"/>
                            <mxPoint x="1168" y="392"/>
                        </Array>
                    </mxGeometry>
                </mxCell>
                <mxCell id="32" value="&lt;font style=&quot;font-size: 17px;&quot;&gt;протокол разногласий&lt;/font&gt;" style="rhombus;whiteSpace=wrap;html=1;labelBackgroundColor=default;labelBorderColor=none;strokeColor=#18F02E;" vertex="1" parent="1">
                    <mxGeometry x="812" y="574" width="261.5" height="157" as="geometry"/>
                </mxCell>
                <mxCell id="60" style="edgeStyle=none;html=1;exitX=1;exitY=0.5;exitDx=0;exitDy=0;entryX=0.439;entryY=0.931;entryDx=0;entryDy=0;entryPerimeter=0;shape=flexArrow;strokeColor=#33FF33;width=15.294117647058824;endSize=7.094117647058824;" edge="1" parent="1" source="34" target="62">
                    <mxGeometry relative="1" as="geometry">
                        <mxPoint x="1421" y="147" as="targetPoint"/>
                        <Array as="points">
                            <mxPoint x="1600" y="308"/>
                        </Array>
                    </mxGeometry>
                </mxCell>
                <mxCell id="34" value="&lt;font style=&quot;font-size: 16px;&quot;&gt;Согласование&lt;/font&gt;" style="rounded=1;whiteSpace=wrap;html=1;labelBackgroundColor=default;labelBorderColor=none;strokeColor=#18F02E;" vertex="1" parent="1">
                    <mxGeometry x="1337" y="294" width="203" height="28" as="geometry"/>
                </mxCell>
                <mxCell id="61" style="edgeStyle=none;html=1;exitX=1;exitY=0.5;exitDx=0;exitDy=0;shape=flexArrow;strokeColor=#18F02E;width=12.941176470588236;endSize=9.200000000000001;" edge="1" parent="1" source="35">
                    <mxGeometry relative="1" as="geometry">
                        <mxPoint x="1596" y="322" as="targetPoint"/>
                        <Array as="points">
                            <mxPoint x="1596" y="474"/>
                        </Array>
                    </mxGeometry>
                </mxCell>
                <mxCell id="35" value="&lt;font style=&quot;font-size: 16px;&quot;&gt;Согласование&lt;/font&gt;" style="rounded=1;whiteSpace=wrap;html=1;labelBackgroundColor=default;labelBorderColor=none;strokeColor=#18F02E;" vertex="1" parent="1">
                    <mxGeometry x="1344" y="457.5" width="203" height="32.5" as="geometry"/>
                </mxCell>
                <mxCell id="43" style="edgeStyle=none;html=1;entryX=0;entryY=0.5;entryDx=0;entryDy=0;startArrow=none;fillColor=#e51400;strokeColor=#B20000;" edge="1" parent="1" source="49" target="41">
                    <mxGeometry relative="1" as="geometry"/>
                </mxCell>
                <mxCell id="44" style="edgeStyle=none;html=1;entryX=1;entryY=0.5;entryDx=0;entryDy=0;startArrow=none;fillColor=#e51400;strokeColor=#B20000;" edge="1" parent="1" source="50" target="25">
                    <mxGeometry relative="1" as="geometry">
                        <mxPoint x="854" y="188.9999999999999" as="targetPoint"/>
                    </mxGeometry>
                </mxCell>
                <mxCell id="40" value="&lt;font color=&quot;#df0707&quot; style=&quot;font-size: 17px;&quot;&gt;Договор не в&amp;nbsp; нашей редакции&lt;/font&gt;" style="rounded=1;whiteSpace=wrap;html=1;labelBackgroundColor=default;labelBorderColor=none;fillColor=none;strokeColor=#99FFFF;fontColor=#ffffff;strokeWidth=3;" vertex="1" parent="1">
                    <mxGeometry x="406" y="182" width="203" height="49" as="geometry"/>
                </mxCell>
                <mxCell id="70" style="edgeStyle=none;html=1;strokeColor=#B20000;fillColor=#e51400;" edge="1" parent="1" source="41">
                    <mxGeometry relative="1" as="geometry">
                        <mxPoint x="539" y="546" as="targetPoint"/>
                        <Array as="points">
                            <mxPoint x="987" y="364"/>
                            <mxPoint x="539" y="364"/>
                        </Array>
                    </mxGeometry>
                </mxCell>
                <mxCell id="41" value="&lt;font color=&quot;#ff3333&quot; style=&quot;font-size: 17px;&quot;&gt;Продокол разногласий&lt;/font&gt;" style="rounded=1;whiteSpace=wrap;html=1;labelBackgroundColor=default;labelBorderColor=none;fillColor=none;strokeColor=#99FFFF;fontColor=#ffffff;strokeWidth=3;" vertex="1" parent="1">
                    <mxGeometry x="826" y="192.5" width="322" height="42" as="geometry"/>
                </mxCell>
                <mxCell id="52" value="" style="edgeStyle=none;html=1;endArrow=none;fillColor=#e51400;strokeColor=#B20000;entryX=-0.03;entryY=0.549;entryDx=0;entryDy=0;entryPerimeter=0;" edge="1" parent="1" source="40" target="50">
                    <mxGeometry relative="1" as="geometry">
                        <mxPoint x="584.3333333333333" y="231" as="sourcePoint"/>
                        <mxPoint x="616" y="245" as="targetPoint"/>
                        <Array as="points">
                            <mxPoint x="511" y="301"/>
                        </Array>
                    </mxGeometry>
                </mxCell>
                <mxCell id="50" value="&lt;font style=&quot;font-size: 14px;&quot;&gt;принимаем&lt;/font&gt;" style="text;html=1;align=center;verticalAlign=middle;resizable=0;points=[];autosize=1;strokeColor=none;fillColor=none;" vertex="1" parent="1">
                    <mxGeometry x="557" y="283.5" width="91" height="35" as="geometry"/>
                </mxCell>
                <mxCell id="53" value="" style="edgeStyle=none;html=1;entryX=0;entryY=0.5;entryDx=0;entryDy=0;endArrow=none;fillColor=#e51400;strokeColor=#B20000;" edge="1" parent="1" source="40" target="49">
                    <mxGeometry relative="1" as="geometry">
                        <mxPoint x="629.9999999999998" y="223.75252525252517" as="sourcePoint"/>
                        <mxPoint x="874.9999999999998" y="248.5" as="targetPoint"/>
                    </mxGeometry>
                </mxCell>
                <mxCell id="49" value="&lt;font style=&quot;font-size: 14px;&quot;&gt;нет&lt;/font&gt;" style="text;html=1;align=center;verticalAlign=middle;resizable=0;points=[];autosize=1;strokeColor=none;fillColor=none;" vertex="1" parent="1">
                    <mxGeometry x="732" y="196" width="42" height="35" as="geometry"/>
                </mxCell>
                <mxCell id="63" style="edgeStyle=none;html=1;fillColor=#e3c800;strokeColor=#B09500;" edge="1" parent="1" source="62" target="64">
                    <mxGeometry relative="1" as="geometry">
                        <mxPoint x="1575" y="87.5" as="targetPoint"/>
                    </mxGeometry>
                </mxCell>
                <mxCell id="62" value="&lt;font style=&quot;font-size: 17px;&quot;&gt;Подпись договора&lt;/font&gt;" style="shape=document;whiteSpace=wrap;html=1;boundedLbl=1;labelBackgroundColor=default;labelBorderColor=none;strokeColor=#fdff99;strokeWidth=3;fillColor=none;" vertex="1" parent="1">
                    <mxGeometry x="1547" y="47.5" width="120" height="80" as="geometry"/>
                </mxCell>
                <mxCell id="64" value="&lt;font style=&quot;font-size: 16px;&quot;&gt;Внесение договора в систему&lt;/font&gt;" style="shape=hexagon;perimeter=hexagonPerimeter2;whiteSpace=wrap;html=1;fixedSize=1;labelBackgroundColor=default;labelBorderColor=none;strokeColor=#f3ff99;strokeWidth=3;fillColor=none;" vertex="1" parent="1">
                    <mxGeometry x="1778" y="47" width="161" height="80" as="geometry"/>
                </mxCell>
                <mxCell id="67" value="" style="endArrow=classic;html=1;entryX=0;entryY=0.5;entryDx=0;entryDy=0;fillColor=#e3c800;strokeColor=#B09500;" edge="1" parent="1" target="26">
                    <mxGeometry width="50" height="50" relative="1" as="geometry">
                        <mxPoint x="371" y="475" as="sourcePoint"/>
                        <mxPoint x="855" y="420" as="targetPoint"/>
                    </mxGeometry>
                </mxCell>
                <mxCell id="71" value="" style="endArrow=classic;html=1;strokeColor=#B20000;entryX=0;entryY=0.75;entryDx=0;entryDy=0;fillColor=#e51400;" edge="1" parent="1" target="29">
                    <mxGeometry width="50" height="50" relative="1" as="geometry">
                        <mxPoint x="546" y="364" as="sourcePoint"/>
                        <mxPoint x="442" y="700" as="targetPoint"/>
                        <Array as="points">
                            <mxPoint x="392" y="364"/>
                            <mxPoint x="392" y="695"/>
                        </Array>
                    </mxGeometry>
                </mxCell>
            </root>
        </mxGraphModel>
    </diagram>
</mxfile>